<svg xmlns="http://www.w3.org/2000/svg" xmlns:xlink="http://www.w3.org/1999/xlink" width="84.991" height="70.402" viewBox="0 0 84.991 70.402"><defs><style>.a{fill:#12c3a6;}.b{clip-path:url(#a);}.c{clip-path:url(#b);}</style><clipPath id="a"><path class="a" d="M417.406,133H502.4v40.138H417.406Zm0,0" transform="translate(-417.406 -133)"/></clipPath><clipPath id="b"><path class="a" d="M434,93.359h24.851v24.52H434Zm0,0" transform="translate(-434 -93.359)"/></clipPath></defs><g class="b" transform="translate(0 30.265)"><path class="a" d="M499.531,168.565a1.478,1.478,0,0,1-1.417,1.532H462.479c-.882-.125-8.1-1.668-14.486-3.035-12.767-2.728-14.574-3.1-14.971-3.1h-4.244V139.45H440.1c5.356,0,16.455,9.672,20.28,13.4a1.346,1.346,0,0,0,.539.331l14.026,4.555a5.457,5.457,0,0,1,1.945,1.686v3.016a1.491,1.491,0,0,1-1.3,1.528l-13.765-2.98-9.706-6.007a1.355,1.355,0,0,0-1.929.572,1.6,1.6,0,0,0,.525,2.088l9.907,6.13a1.316,1.316,0,0,0,.423.173L475.2,167a1.375,1.375,0,0,0,.278.029,4.286,4.286,0,0,0,4-3.067h18.638a1.482,1.482,0,0,1,1.417,1.535Zm-73.584-1.532h-5.658v-30.65h5.658Zm72.167-6.13H479.72v-1.532c0-2.3-2.765-3.976-3.614-4.436a1.432,1.432,0,0,0-.225-.1l-13.851-4.5c-.875-.838-4.01-3.783-7.839-6.767-6.115-4.768-10.855-7.187-14.093-7.187h-11.32v-1.532a1.478,1.478,0,0,0-1.414-1.532h-8.493a1.478,1.478,0,0,0-1.414,1.532v33.713a1.475,1.475,0,0,0,1.414,1.532h8.493a1.475,1.475,0,0,0,1.414-1.532v-1.532h4.178c.882.126,8.1,1.672,14.489,3.035,12.768,2.733,14.571,3.1,14.968,3.1h35.7a4.439,4.439,0,0,0,4.248-4.6V165.5a4.439,4.439,0,0,0-4.248-4.6" transform="translate(-417.414 -133.025)"/></g><path class="a" d="M477.572,122.5a1.525,1.525,0,0,0-.417,1.315l.762,4.649-3.891-2.139a1.544,1.544,0,0,0-1.488,0l-3.887,2.139.763-4.649A1.526,1.526,0,0,0,469,122.5l-3.3-3.362,4.487-.683a1.535,1.535,0,0,0,1.162-.862l1.938-4.11,1.937,4.11a1.542,1.542,0,0,0,1.162.862l4.487.683Zm7.952-4.915a1.538,1.538,0,0,0-1.229-1.028l-6.637-1.007-2.981-6.324a1.545,1.545,0,0,0-2.79,0l-2.98,6.324-6.637,1.007a1.535,1.535,0,0,0-1.226,1.028,1.516,1.516,0,0,0,.356,1.556l4.846,4.943-1.147,7a1.539,1.539,0,0,0,2.265,1.589l5.918-3.257,5.917,3.257a1.569,1.569,0,0,0,.745.191,1.536,1.536,0,0,0,1.521-1.779l-1.147-7,4.847-4.943a1.525,1.525,0,0,0,.359-1.556" transform="translate(-425.31 -96.199)"/><g class="c" transform="translate(13.578)"><path class="a" d="M450.8,107.514a1.526,1.526,0,0,0-.417,1.316l.762,4.649-3.886-2.139a1.556,1.556,0,0,0-1.492,0l-3.887,2.139.762-4.649a1.526,1.526,0,0,0-.417-1.316l-3.3-3.365,4.487-.679a1.553,1.553,0,0,0,1.162-.863l1.934-4.109,1.938,4.109a1.551,1.551,0,0,0,1.161.863l4.487.679Zm7.953-4.915a1.543,1.543,0,0,0-1.226-1.028l-6.637-1.006L447.9,94.24a1.542,1.542,0,0,0-2.786,0l-2.985,6.325-6.637,1.006a1.544,1.544,0,0,0-1.226,1.028,1.528,1.528,0,0,0,.356,1.557l4.85,4.943-1.147,7a1.518,1.518,0,0,0,.632,1.5,1.536,1.536,0,0,0,1.632.087l5.914-3.254,5.918,3.254a1.534,1.534,0,0,0,1.632-.087,1.519,1.519,0,0,0,.633-1.5l-1.147-7,4.85-4.943a1.526,1.526,0,0,0,.356-1.557" transform="translate(-434.015 -93.359)"/></g><path class="a" d="M504.344,137.483a1.526,1.526,0,0,0-.417,1.316l.758,4.649-3.886-2.14a1.549,1.549,0,0,0-1.488,0l-3.887,2.14.758-4.649a1.526,1.526,0,0,0-.417-1.316l-3.3-3.361,4.487-.683a1.532,1.532,0,0,0,1.162-.863l1.937-4.106,1.938,4.106a1.53,1.53,0,0,0,1.161.863l4.487.683Zm7.953-4.911a1.545,1.545,0,0,0-1.23-1.032l-6.637-1.007-2.98-6.324a1.546,1.546,0,0,0-2.791,0l-2.98,6.324-6.637,1.007a1.547,1.547,0,0,0-1.23,1.032,1.523,1.523,0,0,0,.36,1.554l4.847,4.947-1.148,7a1.54,1.54,0,0,0,2.265,1.59l5.918-3.257,5.918,3.257a1.576,1.576,0,0,0,.744.191,1.538,1.538,0,0,0,1.521-1.78l-1.147-7,4.846-4.947a1.523,1.523,0,0,0,.36-1.554" transform="translate(-430.514 -99.038)"/></svg>