<svg xmlns="http://www.w3.org/2000/svg" xmlns:xlink="http://www.w3.org/1999/xlink" width="97" height="83.571" viewBox="0 0 97 83.571"><defs><style>.a{fill:#12c3a6;stroke:#12c3a6;}.b{clip-path:url(#a);}.c{clip-path:url(#b);}.d{clip-path:url(#c);}.e{clip-path:url(#d);}</style><clipPath id="a"><path class="a" d="M568.176,125h36.613v21.311H568.176Zm0,0" transform="translate(-568.176 -125)"/></clipPath><clipPath id="b"><path class="a" d="M651,125h36.137v21.311H651Zm0,0" transform="translate(-651 -125)"/></clipPath><clipPath id="c"><path class="a" d="M621,174h38.212v1.55H621Zm0,0" transform="translate(-621 -174)"/></clipPath><clipPath id="d"><path class="a" d="M675,174h6.614v1.55H675Zm0,0" transform="translate(-675 -174)"/></clipPath></defs><g transform="translate(0 0.51)"><path class="a" d="M625.653,90.317a.628.628,0,0,1-.594-.431.651.651,0,0,1,.034-.477.687.687,0,0,1,.37-.31.735.735,0,0,1,.19-.034.627.627,0,0,1,.594.439.652.652,0,0,1-.035.477.63.63,0,0,1-.37.31A.669.669,0,0,1,625.653,90.317Zm3.961,25.2a13.5,13.5,0,0,1-9.559-3.967,13.59,13.59,0,0,1-3.574-12.811,13.968,13.968,0,0,1,1.111-2.959,13.673,13.673,0,0,1,4-4.7.637.637,0,0,1,.87.138.624.624,0,0,1-.129.873,12.351,12.351,0,0,0-4.995,9.889A12.266,12.266,0,1,0,629.614,89.7a.629.629,0,0,1,0-1.257,13.5,13.5,0,0,1,9.559,3.967,13.543,13.543,0,0,1-4.3,22.04,13.391,13.391,0,0,1-5.261,1.068" transform="translate(-580.882 -70.209)"/><path class="a" d="M638.892,95.179a12.256,12.256,0,0,0,8.008,3.353,12.271,12.271,0,0,0-5.838-6.941A13.19,13.19,0,0,1,638.892,95.179Zm8.43,4.6a13.453,13.453,0,0,1-9.739-4.148.625.625,0,0,1-.009-.852,12.335,12.335,0,0,0,2.566-4.268.632.632,0,0,1,.345-.365.614.614,0,0,1,.508.009,13.653,13.653,0,0,1,4.642,3.58A13.824,13.824,0,0,1,648.347,99a.629.629,0,0,1-.1.525.64.64,0,0,1-.473.258h-.448" transform="translate(-586.534 -70.647)"/><path class="a" d="M618.5,97.379a12.3,12.3,0,0,0,16.043-6.76,12.287,12.287,0,0,0-16.043,6.76Zm4.676,2.164a13.384,13.384,0,0,1-5.735-1.269.626.626,0,0,1-.327-.775,13.985,13.985,0,0,1,1.946-3.64A13.726,13.726,0,0,1,621.978,91,13.5,13.5,0,0,1,635.6,89.72a.624.624,0,0,1,.327.769,13.213,13.213,0,0,1-1.946,3.637,13.465,13.465,0,0,1-10.807,5.417" transform="translate(-581.143 -70.209)"/><path class="a" d="M633.873,156.978a.625.625,0,0,1-.629-.62.633.633,0,0,1,.629-.629.625.625,0,0,1,.619.629A.617.617,0,0,1,633.873,156.978Zm4.159,0a.618.618,0,0,1-.62-.62.625.625,0,0,1,.62-.629h11.875V137.679l-17.076-6.717-8.121,7.263a.635.635,0,0,1-.852-.017l-7.518-7.246-17.068,6.717v18.049h30.433a.625.625,0,0,1,.035,1.249h-31.1a.631.631,0,0,1-.439-.182.609.609,0,0,1-.182-.439v-19.1a.621.621,0,0,1,.388-.578l17.843-7.027a.644.644,0,0,1,.663.129l7.389,7.13,7.975-7.139a.654.654,0,0,1,.646-.121l17.843,7.027a.621.621,0,0,1,.387.578v19.1a.612.612,0,0,1-.181.439.6.6,0,0,1-.439.182h-12.5" transform="translate(-576.09 -81.125)"/><path class="a" d="M644.941,162.04H610.546a.631.631,0,0,1-.628-.628V149.424a.625.625,0,0,1,.628-.619.617.617,0,0,1,.62.619v11.367h33.154V149.424a.617.617,0,0,1,.62-.619.625.625,0,0,1,.629.619v11.988a.594.594,0,0,1-.19.439.607.607,0,0,1-.439.189" transform="translate(-579.244 -86.213)"/><path class="a" d="M639.431,140.023H622.277a.62.62,0,0,1-.629-.654l.474-9.166a.626.626,0,0,1,.655-.594.639.639,0,0,1,.594.664l-.439,8.5h15.845l-.439-8.5v-.009a.631.631,0,0,1,.164-.448.641.641,0,0,1,.431-.207.626.626,0,0,1,.655.594l.473,9.166a.619.619,0,0,1-.628.654" transform="translate(-582.354 -81.123)"/><path class="a" d="M631.065,148.075h3.909v-4.745h-3.909Zm4.538,1.249h-5.167a.631.631,0,0,1-.439-.182.668.668,0,0,1-.182-.448V142.7a.665.665,0,0,1,.182-.439.634.634,0,0,1,.439-.181H635.6a.651.651,0,0,1,.439.181.668.668,0,0,1,.181.439V148.7a.617.617,0,0,1-.181.448.648.648,0,0,1-.439.182" transform="translate(-584.52 -84.431)"/><path class="a" d="M629.974,151.487l-2.334,9.71h8.354l-1.861-9.71Zm6.778,10.96h-9.9a.623.623,0,0,1-.611-.766l2.644-10.968a.616.616,0,0,1,.6-.474h5.167a.626.626,0,0,1,.611.5l2.1,10.968a.618.618,0,0,1-.611.741" transform="translate(-583.567 -86.593)"/><path class="a" d="M625.912,130.77a.625.625,0,0,1-.628-.62l-.026-7.692a.618.618,0,0,1,.181-.448.584.584,0,0,1,.439-.181.625.625,0,0,1,.628.62l.026,7.7a.612.612,0,0,1-.181.439A.584.584,0,0,1,625.912,130.77Zm11.8,0a.618.618,0,0,1-.62-.62l-.034-7.692a.617.617,0,0,1,.62-.629h.009a.618.618,0,0,1,.62.62l.035,7.7a.651.651,0,0,1-.181.439.619.619,0,0,1-.448.181" transform="translate(-583.311 -79.061)"/><path class="a" d="M590.04,100.161a8.134,8.134,0,1,0,5.761,2.388A8.076,8.076,0,0,0,590.04,100.161Zm0,17.556a9.352,9.352,0,0,1-3.66-.732,9.541,9.541,0,0,1-2.988-2.018A9.4,9.4,0,0,1,590.04,98.91a9.334,9.334,0,0,1,6.639,2.753,9.485,9.485,0,0,1,2.015,2.992,9.41,9.41,0,0,1-2.015,10.314,9.444,9.444,0,0,1-2.989,2.018,9.277,9.277,0,0,1-3.651.732" transform="translate(-571.482 -72.984)"/><g class="b" transform="translate(0 45.098)"><path class="a" d="M586.535,146.289a30.785,30.785,0,0,1-7.793-.968.639.639,0,0,1-.379-.292.607.607,0,0,1-.06-.474.617.617,0,0,1,.758-.439,30.021,30.021,0,0,0,7.466.922h.009a30.654,30.654,0,0,0,3.574-.2V136.1a.621.621,0,0,1,.388-.578l11.952-4.707a10.221,10.221,0,0,0-2.661-1.389c-.783-.31-1.731-.664-2.824-1.06-1.31-.476-2.8-1.019-4.573-1.717l-5.468,10.848a.628.628,0,0,1-.56.345l-.009-.009a.616.616,0,0,1-.551-.353l-5.064-10.822c-1.747.672-3.22,1.214-4.512,1.691-2.8,1.024-4.487,1.636-5.417,2.371a2.993,2.993,0,0,0-.956,1.189,7.829,7.829,0,0,0-.431,2.864v.164a7.14,7.14,0,0,0,1.55,4.492,11.163,11.163,0,0,0,3.273,2.759V135.45a.6.6,0,0,1,.181-.439.652.652,0,0,1,.887,0,.634.634,0,0,1,.181.439v7.457a.627.627,0,0,1,.068.658.641.641,0,0,1-.568.353.572.572,0,0,1-.267-.06h-.009a.353.353,0,0,0-.06-.043c-.026-.009-.043-.018-.069-.026a13.058,13.058,0,0,1-4.607-3.605,9.043,9.043,0,0,1-1.335-2.423,8.691,8.691,0,0,1-.473-2.827v-.19a8.788,8.788,0,0,1,.533-3.338,4.571,4.571,0,0,1,2-2.122,33.92,33.92,0,0,1,5.081-2.113c1.438-.525,3.066-1.111,5.038-1.9a.639.639,0,0,1,.8.319l4.763,10.184.473-.938,4.668-9.263a.633.633,0,0,1,.783-.3c1.989.786,3.626,1.381,5.064,1.906,1.111.4,2.067.749,2.876,1.08,1.834.732,3.031,1.369,3.789,2.44a.637.637,0,0,1,.087.542.627.627,0,0,1-.37.4l-12.4,4.88v8.873a.638.638,0,0,1-.543.623,33.4,33.4,0,0,1-4.28.276" transform="translate(-568.176 -125.061)"/></g><path class="a" d="M593.318,99.755a.631.631,0,0,1-.594-.448.626.626,0,0,1,.6-.8.724.724,0,0,1,.293.069.63.63,0,0,1,.249.852A.623.623,0,0,1,593.318,99.755Zm-13.2,4.608a1.835,1.835,0,0,0-1.481,1.825,1.855,1.855,0,0,0,1.119,1.725.43.43,0,0,1,.087.043,9,9,0,0,1-.06-1.085A9.4,9.4,0,0,1,580.117,104.363Zm18.11,0a9.61,9.61,0,0,1,.276,3.593.492.492,0,0,1,.095-.043,1.875,1.875,0,0,0-.37-3.551ZM580,108.889l-.052.051a1.856,1.856,0,0,0-.577,1.352,1.835,1.835,0,0,0,1.808,1.855,1.76,1.76,0,0,0,.215-.009A9.223,9.223,0,0,1,580,108.889Zm16.956,3.25a1.753,1.753,0,0,0,.215.009,1.83,1.83,0,0,0,1.808-1.855,1.856,1.856,0,0,0-.578-1.352l-.051-.051A9.238,9.238,0,0,1,596.952,112.139Zm.215,1.26a2.926,2.926,0,0,1-1.542-.425.638.638,0,0,1-.292-.423.631.631,0,0,1,.137-.508,8.2,8.2,0,0,0,.414-9.8.644.644,0,0,1-.1-.468.606.606,0,0,1,.259-.4.632.632,0,0,1,.353-.112.644.644,0,0,1,.517.267,10.48,10.48,0,0,1,.938,1.716,1.886,1.886,0,0,0-.852-3.111.649.649,0,0,1-.4-.339.638.638,0,0,1,0-.534,2.015,2.015,0,0,0,.172-.81,1.837,1.837,0,0,0-1.808-1.863,1.743,1.743,0,0,0-1.016.327.644.644,0,0,1-.836-.1,1.618,1.618,0,0,0-1.249-.577,1.5,1.5,0,0,0-.663.138.635.635,0,0,1-.517.017.625.625,0,0,1-.345-.379,1.163,1.163,0,1,0-2.316,0,.626.626,0,0,1-.345.379.636.636,0,0,1-.517-.017,1.5,1.5,0,0,0-.664-.138,1.589,1.589,0,0,0-1.24.577.645.645,0,0,1-.836.1,1.767,1.767,0,0,0-1.024-.327,1.842,1.842,0,0,0-1.808,1.863,1.791,1.791,0,0,0,.181.8.644.644,0,0,1,0,.534.634.634,0,0,1-.414.348,1.841,1.841,0,0,0-1.369,1.8,1.9,1.9,0,0,0,.525,1.312,9.391,9.391,0,0,1,8.672-5.778h.172a.636.636,0,0,1,.611.623V98.1a.629.629,0,0,1-.628.611h-.155a8.157,8.157,0,0,0-6.3,13.331.626.626,0,0,1,.129.508.641.641,0,0,1-.292.423,2.92,2.92,0,0,1-1.533.425,2.98,2.98,0,0,1-2.17-.916,3.128,3.128,0,0,1-.439-3.818,3.116,3.116,0,0,1-1.188-2.477,3.154,3.154,0,0,1,.473-1.662,3.016,3.016,0,0,1,1.232-1.122,3.243,3.243,0,0,1-.362-1.476,3.108,3.108,0,0,1,1.679-2.776,3.242,3.242,0,0,1-.077-.706,3.117,3.117,0,0,1,.9-2.2,3.019,3.019,0,0,1,2.162-.916,2.875,2.875,0,0,0,3.1-.362,2.816,2.816,0,0,1,.6.069,3.286,3.286,0,0,1,1.894-1.559.573.573,0,0,1,.379,0,3.323,3.323,0,0,1,1.894,1.559,2.729,2.729,0,0,1,.594-.069,2.876,2.876,0,0,0,3.1.362,3.024,3.024,0,0,1,2.17.916,3.144,3.144,0,0,1,.887,2.2,3.3,3.3,0,0,1-.077.706,3.15,3.15,0,0,1,1.318,4.251,3.014,3.014,0,0,1,1.231,1.122,3.164,3.164,0,0,1,.483,1.662,3.124,3.124,0,0,1-1.2,2.477,3.16,3.16,0,0,1,.456,1.628,3.1,3.1,0,0,1-.9,2.191,2.974,2.974,0,0,1-2.161.916" transform="translate(-570.618 -71.536)"/><path class="a" d="M596.62,103.666a8.13,8.13,0,0,0,4.892,2.078,8.265,8.265,0,0,0-3.591-4.217A9.477,9.477,0,0,1,596.62,103.666Zm5.752,3.355h-.292a9.357,9.357,0,0,1-6.769-2.888.621.621,0,0,1-.009-.855,8.045,8.045,0,0,0,1.7-2.827.636.636,0,0,1,.861-.362,9.515,9.515,0,0,1,5.115,6.14.611.611,0,0,1-.112.542.628.628,0,0,1-.491.25" transform="translate(-575.325 -73.281)"/><path class="a" d="M582.732,105.067a8.255,8.255,0,0,0,2.92.534,8.147,8.147,0,0,0,7.475-4.906,8.169,8.169,0,0,0-10.394,4.372Zm2.92,1.786a9.377,9.377,0,0,1-3.987-.879.621.621,0,0,1-.319-.777,9.384,9.384,0,0,1,8.87-6.286,9.089,9.089,0,0,1,3.978.89.616.616,0,0,1,.318.766,9.26,9.26,0,0,1-1.351,2.526,9.35,9.35,0,0,1-7.509,3.76" transform="translate(-571.658 -72.984)"/><path class="a" d="M588.5,128.527l2.162,4.6.844,1.57,3.247-6.451V123.25a9.307,9.307,0,0,1-2.962.474,9.466,9.466,0,0,1-3.29-.586Zm3.031,8.149h-.009a.636.636,0,0,1-.551-.327l-1.438-2.673-2.221-4.745a.746.746,0,0,1-.06-.267v-6.476a.652.652,0,0,1,.3-.533.624.624,0,0,1,.6-.026,8.13,8.13,0,0,0,3.635.844,8.049,8.049,0,0,0,3.333-.706.634.634,0,0,1,.594.043.654.654,0,0,1,.284.525V128.4a.684.684,0,0,1-.069.284l-3.849,7.65a.64.64,0,0,1-.551.345" transform="translate(-573.235 -78.99)"/><path class="a" d="M671.532,100.161a8.149,8.149,0,1,0,5.761,2.388A8.076,8.076,0,0,0,671.532,100.161Zm0,17.556a9.352,9.352,0,0,1-3.66-.732,9.511,9.511,0,0,1-2.979-2.018,9.409,9.409,0,0,1-2.756-6.648,9.392,9.392,0,0,1,16.043-6.657,9.459,9.459,0,0,1,2.006,2.992,9.437,9.437,0,0,1-2.006,10.314,9.544,9.544,0,0,1-2.989,2.018,9.348,9.348,0,0,1-3.66.732" transform="translate(-593.09 -72.984)"/><g class="c" transform="translate(60.863 45.098)"><path class="a" d="M668.834,146.289a33.416,33.416,0,0,1-4.28-.276.638.638,0,0,1-.542-.623v-8.873l-12.4-4.88a.627.627,0,0,1-.37-.4.639.639,0,0,1,.086-.542c.75-1.071,1.955-1.708,3.789-2.44.81-.331,1.775-.675,2.877-1.08,1.438-.525,3.074-1.12,5.063-1.906a.65.65,0,0,1,.224-.043.628.628,0,0,1,.56.345l5.141,10.2.4-.861,4.367-9.323a.627.627,0,0,1,.792-.319c2,.8,3.634,1.39,5.072,1.915a23.639,23.639,0,0,1,5.7,2.535,4.333,4.333,0,0,1,1.343,1.682,8.768,8.768,0,0,1,.534,3.338v.19a8.692,8.692,0,0,1-.474,2.827,9.044,9.044,0,0,1-1.334,2.423,13.062,13.062,0,0,1-4.608,3.605c-.026.009-.043.026-.068.026a.519.519,0,0,1-.069.043.71.71,0,0,1-.267.06.626.626,0,0,1-.5-1.01V135.45a.634.634,0,0,1,.181-.439.652.652,0,0,1,.887,0,.6.6,0,0,1,.181.439v6.734a11.171,11.171,0,0,0,3.272-2.759,7.193,7.193,0,0,0,1.551-4.492v-.164a8.029,8.029,0,0,0-.431-2.864,3.3,3.3,0,0,0-1.49-1.542,32.212,32.212,0,0,0-4.848-2.01c-1.3-.476-2.782-1.019-4.547-1.7l-5.072,10.822a.63.63,0,0,1-.551.362H669a.628.628,0,0,1-.56-.345l-5.459-10.848c-1.783.689-3.272,1.24-4.582,1.717-1.093.4-2.041.75-2.824,1.06a10.307,10.307,0,0,0-2.653,1.389l11.944,4.7a.635.635,0,0,1,.4.586v8.743a30.672,30.672,0,0,0,3.574.2h.009a29.847,29.847,0,0,0,7.458-.922.623.623,0,1,1,.318,1.205,30.671,30.671,0,0,1-7.785.968" transform="translate(-651.057 -125.061)"/></g><path class="a" d="M666.517,99.755a.625.625,0,0,1-.551-.327.654.654,0,0,1-.051-.474.617.617,0,0,1,.3-.37.622.622,0,1,1,.595,1.093A.6.6,0,0,1,666.517,99.755Zm13.21,4.608a9.446,9.446,0,0,1,.336,2.509,9,9,0,0,1-.06,1.085.424.424,0,0,1,.086-.043,1.855,1.855,0,0,0,1.12-1.725A1.835,1.835,0,0,0,679.727,104.363Zm-18.118,0a1.872,1.872,0,0,0-.362,3.551.232.232,0,0,1,.086.051,9.234,9.234,0,0,1-.06-1.093A9.446,9.446,0,0,1,661.609,104.363Zm-.12,4.518a.366.366,0,0,1-.052.06,1.867,1.867,0,0,0,1.24,3.207,1.62,1.62,0,0,0,.207-.009A9.359,9.359,0,0,1,661.488,108.881Zm16.965,3.258a1.683,1.683,0,0,0,.215.009,1.835,1.835,0,0,0,1.808-1.855,1.857,1.857,0,0,0-.578-1.352.4.4,0,0,1-.051-.06A9.21,9.21,0,0,1,678.453,112.139Zm.215,1.26a2.926,2.926,0,0,1-1.542-.425.627.627,0,0,1-.164-.93,8.162,8.162,0,0,0-.533-10.943,8.076,8.076,0,0,0-5.761-2.388H670.5a.634.634,0,0,1-.628-.611v-.017a.624.624,0,0,1,.611-.623h.181a9.393,9.393,0,0,1,8.672,5.778,1.9,1.9,0,0,0,.525-1.312,1.848,1.848,0,0,0-1.378-1.8.616.616,0,0,1-.4-.348.638.638,0,0,1,0-.534,1.791,1.791,0,0,0,.181-.8,1.843,1.843,0,0,0-1.808-1.863,1.705,1.705,0,0,0-1.016.327.656.656,0,0,1-.844-.1,1.6,1.6,0,0,0-1.24-.577,1.562,1.562,0,0,0-.672.138.615.615,0,0,1-.508.017.6.6,0,0,1-.345-.379,2.163,2.163,0,0,0-1.163-1.269,2.1,2.1,0,0,0-1.154,1.269.627.627,0,0,1-.345.379.636.636,0,0,1-.517-.017,1.528,1.528,0,0,0-.664-.138,1.666,1.666,0,0,0-1.257.577.633.633,0,0,1-.835.1,1.7,1.7,0,0,0-1.007-.327,1.837,1.837,0,0,0-1.808,1.863,2.015,2.015,0,0,0,.172.81.638.638,0,0,1,0,.534.648.648,0,0,1-.4.339A1.887,1.887,0,0,0,662,103.24a9.769,9.769,0,0,1,.93-1.708.64.64,0,0,1,.869-.163.625.625,0,0,1,.155.872,8.181,8.181,0,0,0,.422,9.8.631.631,0,0,1,.138.508.65.65,0,0,1-.3.431,3.011,3.011,0,0,1-1.533.417,2.963,2.963,0,0,1-2.162-.916,3.129,3.129,0,0,1-.439-3.818,3.1,3.1,0,0,1-1.2-2.477,3.14,3.14,0,0,1,.473-1.662,3.043,3.043,0,0,1,1.24-1.122,3.15,3.15,0,0,1,1.318-4.251,3.3,3.3,0,0,1-.078-.706,3.148,3.148,0,0,1,.887-2.2,3.027,3.027,0,0,1,2.171-.916,2.815,2.815,0,0,1,1.274.3,2.871,2.871,0,0,1,1.817-.657h.008a2.673,2.673,0,0,1,.595.069,3.352,3.352,0,0,1,1.894-1.559.572.572,0,0,1,.379,0,3.286,3.286,0,0,1,1.894,1.559,2.81,2.81,0,0,1,.6-.069,2.872,2.872,0,0,1,1.817.657,2.825,2.825,0,0,1,1.283-.3,3.089,3.089,0,0,1,3.057,3.115,3.238,3.238,0,0,1-.077.706,3.15,3.15,0,0,1,1.318,4.251,3.071,3.071,0,0,1,1.231,1.122,3.155,3.155,0,0,1,.474,1.662,3.116,3.116,0,0,1-1.188,2.477,3.128,3.128,0,0,1-.439,3.818,2.974,2.974,0,0,1-2.161.916" transform="translate(-592.226 -71.536)"/><path class="a" d="M667.594,101.527A8.262,8.262,0,0,0,664,105.744a8.08,8.08,0,0,0,4.891-2.078A9.465,9.465,0,0,1,667.594,101.527Zm-4.159,5.494v0h-.293a.628.628,0,0,1-.491-.25.61.61,0,0,1-.112-.542,9.449,9.449,0,0,1,5.115-6.14.632.632,0,0,1,.5-.008.647.647,0,0,1,.353.37,8.13,8.13,0,0,0,1.7,2.827.62.62,0,0,1-.008.855,9.357,9.357,0,0,1-6.769,2.888" transform="translate(-593.191 -73.281)"/><path class="a" d="M670.445,100.7a8.137,8.137,0,0,0,7.475,4.906,8.253,8.253,0,0,0,2.919-.534,8.168,8.168,0,0,0-10.394-4.372Zm7.475,6.157a9.405,9.405,0,0,1-8.87-6.287.631.631,0,0,1,.327-.775,9.233,9.233,0,0,1,3.978-.881,9.384,9.384,0,0,1,8.87,6.286.629.629,0,0,1-.318.777,9.378,9.378,0,0,1-3.987.879" transform="translate(-594.914 -72.984)"/><path class="a" d="M670.44,128.242l3.247,6.451.844-1.57,2.153-4.6v-5.388a9.454,9.454,0,0,1-3.281.586,9.3,9.3,0,0,1-2.962-.474Zm3.229,8.434h-.009a.642.642,0,0,1-.551-.345l-3.849-7.65a.7.7,0,0,1-.069-.284v-6.062a.656.656,0,0,1,.284-.525.636.636,0,0,1,.594-.043,8.046,8.046,0,0,0,3.333.706,8.155,8.155,0,0,0,3.634-.844.625.625,0,0,1,.6.026.643.643,0,0,1,.292.533v6.476a.6.6,0,0,1-.06.267l-2.23,4.771-1.421,2.647a.634.634,0,0,1-.551.327" transform="translate(-594.96 -78.99)"/><path class="a" d="M632.606,171.329H580.385a.617.617,0,0,1-.62-.619.626.626,0,0,1,.62-.632h52.221a.626.626,0,0,1,.62.632.617.617,0,0,1-.62.619" transform="translate(-571.249 -91.854)"/><g class="d" transform="translate(38.818 81.106)"><path class="a" d="M658.133,175.659H622a.617.617,0,0,1-.62-.619.625.625,0,0,1,.62-.629h36.134a.625.625,0,0,1,.619.629.617.617,0,0,1-.619.619" transform="translate(-621.101 -174.109)"/></g><g class="e" transform="translate(78.499 81.106)"><path class="a" d="M680.728,175.659H676.2a.617.617,0,0,1-.62-.619.625.625,0,0,1,.62-.629h4.53a.631.631,0,0,1,.62.629.623.623,0,0,1-.62.619" transform="translate(-675.153 -174.109)"/></g><path class="a" d="M594.713,175.53h-17.12a.632.632,0,0,1-.628-.628.625.625,0,0,1,.628-.62h17.12a.625.625,0,0,1,.629.62.632.632,0,0,1-.629.628" transform="translate(-570.506 -92.969)"/><path class="a" d="M642.726,82.8a.624.624,0,1,1,0-1.249.624.624,0,0,1,0,1.249Zm-33.619,4.458a.625.625,0,0,1-.62-.629V77.605h-4.84a.629.629,0,0,1-.31-1.174l22.2-12.725a.659.659,0,0,1,.62,0L648.5,76.431a.642.642,0,0,1,.293.709.628.628,0,0,1-.6.465h-4.839V78a.617.617,0,0,1-.62.62A.625.625,0,0,1,642.1,78V76.977a.647.647,0,0,1,.181-.442.632.632,0,0,1,.448-.181h3.1L625.847,64.972,606,76.354h3.109a.632.632,0,0,1,.448.181.644.644,0,0,1,.181.442v9.648A.632.632,0,0,1,609.107,87.253Zm33.619,7.633a.632.632,0,0,1-.629-.628V86.34a.632.632,0,0,1,.629-.629.625.625,0,0,1,.62.629v7.917a.625.625,0,0,1-.62.628" transform="translate(-577.416 -63.629)"/></g></svg>