<svg xmlns="http://www.w3.org/2000/svg" xmlns:xlink="http://www.w3.org/1999/xlink" width="40" height="40" viewBox="0 0 40 40"><defs><style>.a{fill:#12c3a6;}.b{clip-path:url(#a);}.c{fill:#fff;}</style><clipPath id="a"><path d="M256.922,354.191H278.17v18.025H256.922Zm0,0" transform="translate(-256.922 -354.191)"/></clipPath></defs><rect class="a" width="40" height="40"/><g transform="translate(-1480.178 -7726.713)"><g class="b" transform="translate(1489.85 7738.283)"><path class="c" d="M278.08,358.72a.439.439,0,0,0-.494-.188,10.628,10.628,0,0,1-1.322.276,4.581,4.581,0,0,0,1.154-.794.437.437,0,0,0-.494-.706,3.9,3.9,0,0,1-1.65.365,6.171,6.171,0,0,0-2.843-2.955,4.83,4.83,0,0,0-3.044-.436c-2.477.55-3.61,3.5-3.239,5.908a21.4,21.4,0,0,1-8.573-2.9.437.437,0,0,0-.653.388c.051,2.613,2.438,3.86,3.463,4.274a6.594,6.594,0,0,1-.873.014.437.437,0,0,0-.261.8,6.036,6.036,0,0,0,2.137.932c-.152.011-.309.017-.462.022a.437.437,0,0,0-.206.815,5.743,5.743,0,0,0,2.8.835h.081a3.333,3.333,0,0,1-.417.12l-.14.028a.438.438,0,0,0-.05.847,4.444,4.444,0,0,0,2.263.173,2.936,2.936,0,0,0,.363-.106h0c-.018.67-.372,2.925-4.164,3.767l-.05.011a7.1,7.1,0,0,1-1.378.114c-.262,0-.525-.01-.783-.03a.437.437,0,0,0-.218.832,12.12,12.12,0,0,0,4.743,1.09h.014a12.486,12.486,0,0,0,2.7-.3,13.642,13.642,0,0,0,4.678-2.053h0a.485.485,0,0,0,.093-.049,12.436,12.436,0,0,0,4.619-6.061c0-.009.006-.017.009-.027a8.576,8.576,0,0,0,.4-3.45,3.972,3.972,0,0,0,1.746-1.036A.437.437,0,0,0,278.08,358.72Zm0,0" transform="translate(-256.921 -354.194)"/></g></g></svg>