<svg xmlns="http://www.w3.org/2000/svg" xmlns:xlink="http://www.w3.org/1999/xlink" width="75.75" height="83.25" viewBox="0 0 75.75 83.25"><defs><style>.a{fill:#12c3a6;}.b{clip-path:url(#a);}</style><clipPath id="a"><path class="a" d="M312.516,93.359h75.75v83.25h-75.75Zm0,0"/></clipPath></defs><g class="b" transform="translate(-312.516 -93.359)"><path class="a" d="M378.039,113.262l2.481-2.473,2.867,2.863a1.264,1.264,0,0,0,1.828,0,1.258,1.258,0,0,0,0-1.82l-3.781-3.773-3.786-3.774a1.288,1.288,0,0,0-1.824,1.82l2.867,2.864-2.476,2.472a37.7,37.7,0,0,0-21.391-10.015,5.24,5.24,0,1,0-9.652-2.864,4.435,4.435,0,0,0,.914,2.864,38.34,38.34,0,0,0-21.523,9.883l-2.348-2.34,2.871-2.864a1.288,1.288,0,1,0-1.824-1.82l-3.785,3.774-3.782,3.773a1.252,1.252,0,0,0,0,1.82,1.26,1.26,0,0,0,1.825,0l2.871-2.863,2.347,2.344a37.78,37.78,0,1,0,65.477,25.754A37.4,37.4,0,0,0,378.039,113.262Zm-27.648-17.3a2.6,2.6,0,1,1-2.61,2.6A2.612,2.612,0,0,1,350.391,95.961Zm0,78.047a35.121,35.121,0,1,1,35.214-35.121A35.19,35.19,0,0,1,350.391,174.008Zm0,0"/></g><path class="a" d="M377.52,154.5a31.052,31.052,0,0,0,0-31.09v-.258a31.5,31.5,0,0,0-11.348-11.316h-.262a31.011,31.011,0,0,0-31.043,0h-.262a31.477,31.477,0,0,0-11.343,11.316l-.133.129v.129a31.135,31.135,0,0,0-4.043,15.481,31.71,31.71,0,0,0,4.176,15.609v.262a31.524,31.524,0,0,0,11.343,11.316h.262a31.036,31.036,0,0,0,31.043,0h.262a31.545,31.545,0,0,0,11.348-11.316Zm-11.61,8.453-.652-1.168a1.342,1.342,0,0,0-2.348,1.3l.653,1.168A27.809,27.809,0,0,1,351.7,167.5v-5.2a1.3,1.3,0,0,0-2.609,0v5.2a26.052,26.052,0,0,1-11.871-3.254l.652-1.168a1.342,1.342,0,0,0-2.347-1.3l-.653,1.168a27.948,27.948,0,0,1-8.738-8.715l1.176-.648a1.341,1.341,0,0,0-1.3-2.344l-1.176.653a28.374,28.374,0,0,1-3.129-11.707h5.215a1.3,1.3,0,1,0,0-2.6H321.7a25.87,25.87,0,0,1,3.262-11.836l1.172.648a1.188,1.188,0,0,0,.652.129,1.558,1.558,0,0,0,1.176-.648,1.313,1.313,0,0,0-.523-1.82l-1.172-.653A27.875,27.875,0,0,1,335,114.691l.652,1.172a1.364,1.364,0,0,0,1.172.649,1.19,1.19,0,0,0,.653-.129,1.441,1.441,0,0,0,.523-1.82l-.652-1.172a30.331,30.331,0,0,1,11.867-3.25v5.2a1.3,1.3,0,0,0,2.609,0v-5.2a26.056,26.056,0,0,1,11.867,3.25l-.648,1.172a1.31,1.31,0,0,0,.52,1.82,1.185,1.185,0,0,0,.652.129,1.561,1.561,0,0,0,1.176-.649l.648-1.172a27.909,27.909,0,0,1,8.742,8.715l-1.176.653c-.914.519-1.042,1.3-.652,1.82a1.369,1.369,0,0,0,1.176.648,1.192,1.192,0,0,0,.652-.129l1.172-.648a30.165,30.165,0,0,1,3.262,11.836H374a1.3,1.3,0,1,0,0,2.6h5.219a25.915,25.915,0,0,1-3.262,11.835l-1.172-.648a1.339,1.339,0,1,0-1.3,2.34l1.171.652A32.246,32.246,0,0,1,365.91,162.949Zm0,0" transform="translate(-312.516 -93.359)"/><path class="a" d="M368.648,137.586H355.086a4.752,4.752,0,0,0-3.391-3.254V120.676a1.3,1.3,0,0,0-2.609,0v13.656a4.772,4.772,0,0,0-3.523,4.684,4.894,4.894,0,0,0,4.828,4.812,5.051,5.051,0,0,0,4.7-3.512h13.562a1.228,1.228,0,0,0,1.3-1.3A1.335,1.335,0,0,0,368.648,137.586ZM350.391,141.1a2.211,2.211,0,1,1,2.214-2.211A2.281,2.281,0,0,1,350.391,141.1Zm0,0" transform="translate(-312.516 -93.359)"/></svg>