<svg xmlns="http://www.w3.org/2000/svg" xmlns:xlink="http://www.w3.org/1999/xlink" width="40" height="40" viewBox="0 0 40 40"><defs><style>.a{fill:#12c3a6;}.b{clip-path:url(#a);}.c{fill:#fff;}.d{clip-path:url(#b);}</style><clipPath id="a"><path d="M515.977,327.047h5.515v22.782h-5.515Zm0,0" transform="translate(-515.977 -327.047)"/></clipPath><clipPath id="b"><path d="M584,388h14.8v15.633H584Zm0,0" transform="translate(-584 -388)"/></clipPath></defs><rect class="a" width="40" height="40"/><g transform="translate(-1520.111 -7726.188)"><g class="b" transform="translate(1528.72 7734)"><path class="c" d="M516.332,334.8h4.73V350h-4.73Zm2.367-7.554a2.738,2.738,0,1,1-2.742,2.738,2.74,2.74,0,0,1,2.742-2.738" transform="translate(-515.959 -327.226)"/></g><g class="d" transform="translate(1536.698 7741.149)"><path class="c" d="M584.762,388.815h4.53v2.077h.064a4.964,4.964,0,0,1,4.471-2.454c4.781,0,5.666,3.146,5.666,7.238v8.335h-4.721v-7.388c0-1.764-.035-4.031-2.456-4.031-2.459,0-2.834,1.919-2.834,3.9v7.518h-4.72Zm0,0" transform="translate(-584.673 -388.387)"/></g></g></svg>