<svg xmlns="http://www.w3.org/2000/svg" width="23.932" height="23.95" viewBox="0 0 23.932 23.95"><defs><style>.a{fill:#fff;}</style></defs><g transform="translate(-1646 -7423.75)"><path class="a" d="M661.487,325.64a1.316,1.316,0,0,0-.936-.374,1.272,1.272,0,0,0-.917.374l-.786.786a1.333,1.333,0,0,0,0,1.852l.992.992H650.56a1.3,1.3,0,0,0-1.31,1.291v1.1a1.33,1.33,0,0,0,1.31,1.328H659.9l-1.048,1.029a1.31,1.31,0,0,0,0,1.834l.786.786a1.3,1.3,0,0,0,.917.374,1.347,1.347,0,0,0,.936-.374l4.584-4.547a1.315,1.315,0,0,0,.374-.936,1.348,1.348,0,0,0-.374-.936Zm0,0" transform="translate(1003.486 7104.565)"/><path class="a" d="M573.45,262.085h-1.1a1.363,1.363,0,0,0-1.291,1.123h-9.187V246.742h9.187a1.38,1.38,0,0,0,1.291,1.123h1.1a1.342,1.342,0,0,0,1.328-1.31v-1.684A1.877,1.877,0,0,0,572.907,243H560a1.877,1.877,0,0,0-1.871,1.871v20.208A1.877,1.877,0,0,0,560,266.95h12.911a1.877,1.877,0,0,0,1.871-1.871V263.4A1.317,1.317,0,0,0,573.45,262.085Zm0,0" transform="translate(1087.875 7180.75)"/></g></svg>