<svg xmlns="http://www.w3.org/2000/svg" xmlns:xlink="http://www.w3.org/1999/xlink" width="14.418" height="15.688" viewBox="0 0 14.418 15.688"><defs><style>.a{clip-path:url(#a);}.b{fill:#fff;}</style><clipPath id="a"><path d="M195.633,107.234h14.418v15.688H195.633Zm0,0" transform="translate(0 0)"/></clipPath></defs><g class="a" transform="translate(-195.633 -107.234)"><path class="b" d="M207.651,123.384h-.018c-2.442-.084-5.312-2.671-7.291-4.824s-4.355-5.278-4.433-7.924c-.026-.9,2.062-2.557,2.083-2.573a.945.945,0,0,1,1.345.1c.167.251,1.763,2.884,1.937,3.184a1.3,1.3,0,0,1-.073,1.189c-.126.262-.553,1.079-.739,1.434a17.963,17.963,0,0,0,1.915,2.378,17.29,17.29,0,0,0,2.186,2.085c.326-.2,1.078-.668,1.319-.806a1.057,1.057,0,0,1,1.088-.082c.287.191,2.7,1.937,2.926,2.109a.884.884,0,0,1,.313.64,1.346,1.346,0,0,1-.221.827C209.973,121.14,208.466,123.384,207.651,123.384Zm0,0" transform="translate(-0.219 -0.463)"/></g></svg>