<svg xmlns="http://www.w3.org/2000/svg" xmlns:xlink="http://www.w3.org/1999/xlink" width="13.281" height="17.644" viewBox="0 0 13.281 17.644"><defs><style>.a{clip-path:url(#a);}.b{fill:#fff;}</style><clipPath id="a"><path d="M99.152,107.234h13.281v17.644H99.152Zm0,0" transform="translate(0 0)"/></clipPath></defs><g class="a" transform="translate(-99.152 -107.234)"><path class="b" d="M105.8,107.234a6.634,6.634,0,0,0-6.639,6.617c0,4.586,5.993,10.612,6.248,10.867a.558.558,0,0,0,.784,0c.254-.255,6.248-6.281,6.248-10.867A6.635,6.635,0,0,0,105.8,107.234Zm0,9.925a3.308,3.308,0,1,1,3.32-3.308A3.319,3.319,0,0,1,105.8,117.159Zm0,0" transform="translate(-0.003 0)"/></g></svg>