<svg xmlns="http://www.w3.org/2000/svg" width="69.027" height="77.529" viewBox="0 0 69.027 77.529"><defs><style>.a{fill:#12c3a6;stroke:#12c3a6;}</style></defs><g transform="translate(-1433.517 -2133.793)"><g transform="translate(1434.063 2134.293)"><path class="a" d="M800.774,74.335a.6.6,0,0,0-.595-.524h-9.5c-.216-1.872-.424-3.006-.427-3.029a.6.6,0,0,0-.589-.489H744.382a.6.6,0,0,0-.589.489c-.006.024-.212,1.157-.43,3.029h-9.5a.6.6,0,0,0-.595.524,43.443,43.443,0,0,0,.641,12.8c1.828,8.679,6.512,14.072,13.552,15.621a22.272,22.272,0,0,0,2.143,3.095,19.559,19.559,0,0,0,9.373,6.252,20.158,20.158,0,0,1-1.348,14.95h-4.389a2.93,2.93,0,0,0-2.927,2.926V143.9a2.93,2.93,0,0,0,2.927,2.926H780.8a2.93,2.93,0,0,0,2.927-2.926V129.982a2.93,2.93,0,0,0-2.927-2.926H776.41a20.164,20.164,0,0,1-1.348-14.95,19.56,19.56,0,0,0,9.374-6.252,22.32,22.32,0,0,0,2.143-3.095c7.039-1.549,11.723-6.942,13.555-15.621a43.44,43.44,0,0,0,.635-12.8Zm-65.68,12.586a43.21,43.21,0,0,1-.681-11.911h8.826a71.527,71.527,0,0,0-.329,8.708c.133,5.167.951,11.911,3.792,17.616-6.047-1.722-9.948-6.564-11.611-14.413Zm47.436,43.062V143.9a1.729,1.729,0,0,1-1.728,1.728H753.25a1.731,1.731,0,0,1-1.731-1.728V129.982a1.732,1.732,0,0,1,1.731-1.728H780.8a1.732,1.732,0,0,1,1.725,1.728Zm-7.463-2.926H758.982a21.351,21.351,0,0,0,1.334-14.575,29.576,29.576,0,0,0,13.418,0A21.365,21.365,0,0,0,775.068,127.056Zm8.446-21.965c-3.839,4.622-9.385,6.965-16.489,6.965s-12.65-2.343-16.49-6.965c-5.01-6.032-6.261-14.956-6.426-21.379a70.191,70.191,0,0,1,.78-12.221H789.16a70.191,70.191,0,0,1,.78,12.221c-.164,6.424-1.413,15.347-6.423,21.379Zm15.444-18.173c-1.663,7.849-5.564,12.691-11.608,14.416,2.838-5.708,3.659-12.453,3.789-17.616a72.253,72.253,0,0,0-.326-8.711h8.825A43.286,43.286,0,0,1,798.958,86.918Zm0,0" transform="translate(-733.063 -70.293)"/><path class="a" d="M786,85.394h-8.729l-2.7-8.3a.6.6,0,0,0-.568-.412.605.605,0,0,0-.571.412l-2.7,8.3h-8.729a.6.6,0,0,0-.353,1.083l7.063,5.134-2.7,8.3a.6.6,0,0,0,.922.669l7.063-5.132,7.063,5.132a.591.591,0,0,0,.35.115.6.6,0,0,0,.571-.783l-2.7-8.3,7.063-5.134a.6.6,0,0,0,.218-.668.588.588,0,0,0-.565-.415Zm-7.767,5.5a.6.6,0,0,0-.218.671l2.264,6.963-5.923-4.3a.6.6,0,0,0-.707,0l-5.923,4.3L770,91.567a.6.6,0,0,0-.218-.671l-5.924-4.3h7.322a.6.6,0,0,0,.571-.412l2.261-6.963,2.264,6.963a.594.594,0,0,0,.568.412h7.322l-5.921,4.3Zm0,0" transform="translate(-740.047 -71.866)"/><path class="a" d="M764.687,153.211a.6.6,0,0,0-.6.6v7.342a.6.6,0,0,0,.6.6h19.96a.6.6,0,0,0,.6-.6v-7.342a.6.6,0,0,0-.6-.6Zm19.362,7.342H765.284v-6.144h18.765Zm0,0" transform="translate(-740.706 -90.719)"/></g></g></svg>